<svg width="64" height="64" version="1.1" viewBox="0 0 64 64" xmlns="http://www.w3.org/2000/svg">
	<path d="m31.592 5.4142c-14.661 0-26.594 11.93-26.594 26.592 0 14.661 11.933 26.594 26.594 26.594 14.661 0 26.592-11.933 26.592-26.594 0-14.661-11.93-26.592-26.592-26.592zm0 4.3633c12.303 0 22.228 9.9255 22.228 22.228s-9.9255 22.231-22.228 22.231-22.231-9.9277-22.231-22.231 9.9277-22.228 22.231-22.228zm8.8403 27.759q0 2.9343-1.7973 4.8417-1.7973 1.9073-4.915 2.4208-0.1834 0.07336-0.1834 0.22008l0.03668 2.3842q0 0.1834-0.14672 0.29343-0.11004 0.14672-0.29343 0.14672h-3.6679q-0.1834 0-0.33011-0.14672-0.11004-0.11004-0.11004-0.29343l0.03668-2.4208q0-0.14672-0.1834-0.22008-3.1177-0.62355-4.915-2.5675-1.7606-1.944-1.7606-4.8783v-0.80694q0-0.1834 0.11004-0.29343 0.14672-0.14672 0.33011-0.14672h3.9614q0.1834 0 0.29343 0.14672 0.14672 0.11004 0.14672 0.29343v0.55019q0 1.4672 1.2838 2.4942 1.2838 0.99034 3.5212 0.99034 1.8706 0 2.7509-0.80694 0.91698-0.84362 0.91698-2.054 0-0.8803-0.55019-1.4672-0.55019-0.62355-1.5405-1.0637-0.95366-0.47683-3.0444-1.2838-2.3842-0.84362-3.998-1.7239t-2.7509-2.3842q-1.1004-1.5405-1.1004-3.778 0-2.8243 1.6872-4.6583 1.7239-1.8706 4.6216-2.4208 0.1834-0.07336 0.1834-0.22008l-0.07336-2.6776q0-0.1834 0.11004-0.29343 0.14672-0.14672 0.33011-0.14672h3.6679q0.1834 0 0.29343 0.14672 0.14672 0.11004 0.14672 0.29343l-0.03668 2.7509q0 0.14672 0.1834 0.22008 3.0444 0.62355 4.8417 2.6776 1.7973 2.0174 1.7973 4.9517v0.55019q0 0.1834-0.14672 0.33011-0.11004 0.11004-0.29343 0.11004h-3.998q-0.1834 0-0.33011-0.11004-0.11004-0.14672-0.11004-0.33011v-0.29343q0-1.5405-1.2104-2.6042-1.2104-1.1004-3.3011-1.1004-1.6506 0-2.5675 0.73358t-0.91698 2.0174q0 0.91698 0.51351 1.5405 0.55019 0.62355 1.6139 1.1371 1.0637 0.51351 3.3011 1.3205 2.4575 0.91698 3.888 1.6506t2.5675 2.2008q1.1371 1.4672 1.1371 3.778z" fill="{link_color}"/>
</svg>
