<svg width="64" height="64" version="1.1" viewBox="0 0 64 64" xmlns="http://www.w3.org/2000/svg">
	<path d="m15.521 8.9121c-3.5097 0-6.5566 2.7444-6.5566 6.2656v4.6992h4.5625v-4.6992c0-0.89455 0.76775-1.7031 1.9941-1.7031h4.5195v-4.5625h-4.5195zm11.355 0v4.5625h10.23v-4.5625h-10.23zm17.066 0v4.5625h4.4609c1.2264 0 1.9922 0.80858 1.9922 1.7031v4.6992h4.5645v-4.6992c0-3.5212-3.0469-6.2656-6.5566-6.2656h-4.4609zm-34.979 17.801v10.23h4.5625v-10.23h-4.5625zm41.432 0v10.23h4.5645v-10.23h-4.5645zm-41.432 17.066v4.7637c0 3.5212 3.0469 6.2676 6.5566 6.2676h4.5195v-4.5625h-4.5195c-1.2264 0-1.9941-0.81053-1.9941-1.7051v-4.7637h-4.5625zm41.432 0v4.7637c0 0.89455-0.76579 1.7051-1.9922 1.7051h-4.4609v4.5625h4.4609c3.5097 0 6.5566-2.7464 6.5566-6.2676v-4.7637h-4.5645zm-23.52 6.4688v4.5625h10.23v-4.5625h-10.23z"/>
</svg>
