<svg width="64" height="64" version="1.1" viewBox="0 0 64 64" xmlns="http://www.w3.org/2000/svg">
 <path d="m0 0v64h64v-64zm37.635 10.976c4.3512 0 5.9399 2.0719 5.9399 4.6274 0 2.5555-1.5885 3.7295-3.3843 3.7295-1.7267 0-3.1079-0.96697-3.1079-2.9009 0-1.2432 0.55233-2.2101 1.4502-2.6245 0.75974-0.34533 1.1054-0.27604 1.1054-0.69045s-0.55289-0.55271-1.1054-0.55271c-3.4534 0-4.9726 3.6605-6.354 9.6694-0.06907 0.41441-0.13818 0.62186-0.13818 0.82907 0 0.34533 0.20698 0.34522 0.69044 0.34522h4.144c0.69065 0 1.0361 0.34546 1.0361 1.0361 0 0.75974-0.34524 1.105-1.105 1.105h-4.4892c-0.34534 0-0.89794 0.62142-0.89794 0.82862l-0.06931 0.06931c-1.6576 5.8707-3.1767 10.153-5.1797 14.366-3.7987 7.8046-7.0452 11.327-12.294 11.327-2.9008 0-5.1797-1.5885-5.1797-4.6274 0-2.1411 1.5193-3.7988 3.5913-3.7988 1.8648 0 3.1079 1.0362 3.1079 2.832 0 1.1051-0.55253 2.0027-1.3813 2.5552-1.036 0.69066-1.6577 0.3454-1.6577 0.89793 0 0.34534 0.34573 0.62158 1.2436 0.62158 2.7627 0 4.0056-2.2099 5.9394-8.9785l4.3515-15.126c0.06907-0.34533 0.13818-0.55231 0.13818-0.69044 0-0.27627-0.13831-0.27636-0.55272-0.27636h-4.0058c-0.69067 0-1.0361-0.34545-1.0361-1.0361 0-0.75974 0.34524-1.105 1.105-1.105h4.0058c0.96694 0 1.036-1.04e-4 1.3813-1.0361 2.2792-6.6305 6.0089-11.396 12.708-11.396zm4.1239 18.661c0.85332 0 7.6352 0.5389 7.6352 6.4224 0 3.7277-3.4133 3.8623-3.4133 3.8623-1.2575 0-3.458-0.80861-3.458-3.3686 0-1.3923 1.0328-3.3234 2.8293-3.3234 0.67368 0 0.8085-0.58362 0.8085-0.98783 0-0.44911-0.9433-1.5271-3.2787-1.5271-2.4253 0-5.8384 1.5268-5.8384 8.9374 0 7.4105 1.9308 10.959 5.5687 10.959 1.4372 0 6.3777-1.3473 6.3777-7.141 0-0.76351 0.3146-0.80805 0.6739-0.80805 0.17965 0 0.67346-2.52e-4 0.67346 0.98782 0 1.3025-1.1676 8.4437-9.0272 8.4437-2.6947 0-5.1652-0.94311-6.8718-3.0091-1.8414-2.2456-2.9192-4.8057-2.9192-7.725 0-6.0631 3.8624-11.722 10.24-11.722z" fill="{text_color}"/>
</svg>
