<svg width="64" height="64" version="1.1" viewBox="0 0 64 64" xmlns="http://www.w3.org/2000/svg">
    <path d="m15.867 8.8472c-3.7501 0-6.8677 3.1176-6.8677 6.8677v32.531c0 3.7501 3.1176 6.8677 6.8677 6.8677h32.523c3.7501 0 6.8677-3.1176 6.8677-6.8677v-11.336a3.1562 3.1562 0 0 0-3.1561-3.1561 3.1562 3.1562 0 0 0-3.1561 3.1561v11.336c0 0.36231-0.19311 0.55542-0.55542 0.55542h-32.523c-0.36231 0-0.55542-0.19311-0.55542-0.55542v-32.531c0-0.36231 0.19311-0.55542 0.55542-0.55542h11.327a3.1562 3.1562 0 0 0 3.1561-3.1561 3.1562 3.1562 0 0 0-3.1561-3.1561zm22.386 0.00859a3.1562 3.1562 0 0 0-3.1786 3.1337 3.1562 3.1562 0 0 0 3.1337 3.1786l6.3821 0.04485-17.623 17.666a3.1562 3.1562 0 0 0 0.0051 4.4632 3.1562 3.1562 0 0 0 4.4636-0.0051l17.488-17.531 0.02244 6.1049a3.1562 3.1562 0 0 0 3.1674 3.1449 3.1562 3.1562 0 0 0 3.1449-3.1678l-0.04998-13.79a3.1565 3.1565 0 0 0-3.1342-3.1449z"/>
</svg>
