<svg width="64" height="64" version="1.1" viewBox="0 0 64 64" xmlns="http://www.w3.org/2000/svg">
	<path d="m47.127 8.957a7.8988 7.8988 0 0 0-7.8984 7.9004 7.8988 7.8988 0 0 0 0.20117 1.6738l-16.338 8.4824a7.8988 7.8988 0 0 0-6.1582-2.9551 7.8988 7.8988 0 0 0-7.8984 7.9004 7.8988 7.8988 0 0 0 7.8984 7.8984 7.8988 7.8988 0 0 0 6.0215-2.793l16.463 8.2031a7.8988 7.8988 0 0 0-0.21289 1.7305 7.8988 7.8988 0 0 0 7.8984 7.8984 7.8988 7.8988 0 0 0 7.9004-7.8984 7.8988 7.8988 0 0 0-7.9004-7.8984 7.8988 7.8988 0 0 0-5.998 2.7637l-16.477-8.2109a7.8988 7.8988 0 0 0 0.20508-1.6934 7.8988 7.8988 0 0 0-0.14453-1.4922l16.408-8.5195a7.8988 7.8988 0 0 0 6.0293 2.8086 7.8988 7.8988 0 0 0 7.8984-7.8984 7.8988 7.8988 0 0 0-7.8984-7.9004z"/>
</svg>
