<svg width="64" height="64" version="1.1" viewBox="0 0 64 64" xmlns="http://www.w3.org/2000/svg">
	<path d="m32.086 9.0391c-7.7328 0-14.078 6.3453-14.078 14.078v6.8906h-0.046874c-2.0885 0-3.7695 1.6092-3.7695 3.6094v17.463c0 2.0002 1.681 3.6113 3.7695 3.6113h28.119c2.0885 0 3.7695-1.6111 3.7695-3.6113v-17.463c0-2.0002-1.681-3.6094-3.7695-3.6094h-20.967v-6.8906c0-3.8922 3.0805-6.9707 6.9727-6.9707 3.0483 0 5.5866 1.9243 6.5547 4.5938a3.5533 3.5533 0 0 0 4.5527 2.1289 3.5533 3.5533 0 0 0 2.1289-4.5527c-1.9664-5.4218-7.18-9.2773-13.236-9.2773z" fill="{link_color}"/>
</svg>
